<svg xmlns="http://www.w3.org/2000/svg" width="720" height="260" viewBox="0 0 720 260" fill="none">
  <defs><linearGradient id="wash" x1="0" y1="0" x2="1" y2="1"><stop offset="0" stop-color="#ffffff" stop-opacity="0"/><stop offset="0.48" stop-color="#64748b" stop-opacity="0.09"/><stop offset="1" stop-color="#cbd5e1" stop-opacity="0.19"/></linearGradient><linearGradient id="line" x1="0" y1="0" x2="1" y2="0"><stop offset="0" stop-color="#64748b" stop-opacity="0"/><stop offset="1" stop-color="#64748b" stop-opacity="0.34"/></linearGradient></defs>
  <rect width="720" height="260" rx="22" fill="url(#wash)"/>
  <path d="M250 204 C348 132 435 146 528 86 C606 36 664 40 720 24" stroke="url(#line)" stroke-width="4" stroke-linecap="round"/>
  <path d="M300 234 C398 176 486 184 590 126 C650 92 688 84 720 78" stroke="url(#line)" stroke-width="2" stroke-linecap="round" opacity="0.72"/>
  <path d="M420 0 C470 44 542 64 720 44 L720 0 Z" fill="#64748b" opacity="0.055"/>
  <g opacity="0.18" stroke="#64748b" stroke-width="2" stroke-linecap="round" stroke-linejoin="round"><circle cx="604" cy="132" r="38"/><circle cx="604" cy="132" r="14"/><path d="M604 76v22M604 166v22M548 132h22M638 132h22M565 93l16 16M627 155l16 16M643 93l-16 16M581 155l-16 16"/></g>
</svg>