<svg xmlns="http://www.w3.org/2000/svg" viewBox="0 0 64 64" role="img" aria-labelledby="title">
  <title id="title">Удалить непригодную запись</title>
  <defs>
    <linearGradient id="panel" x1="0" y1="0" x2="0" y2="1">
      <stop offset="0" stop-color="#ffffff"/>
      <stop offset="1" stop-color="#dce5ee"/>
    </linearGradient>
    <linearGradient id="danger" x1="0" y1="0" x2="1" y2="1">
      <stop offset="0" stop-color="#f38b8b"/>
      <stop offset="1" stop-color="#d94747"/>
    </linearGradient>
    <filter id="shadow" x="-20%" y="-20%" width="140%" height="150%">
      <feDropShadow dx="0" dy="2" stdDeviation="1.6" flood-color="#334155" flood-opacity=".24"/>
    </filter>
  </defs>
  <g filter="url(#shadow)">
    <rect x="7" y="13" width="42" height="34" rx="6" fill="url(#panel)" stroke="#8493a3" stroke-width="1.5"/>
    <path d="M13 19h30M13 41h30" stroke="#a6b3c0" stroke-width="2"/>
    <path d="M13 19v7M20 19v7M36 19v7M43 19v7M13 34v7M20 34v7M36 34v7M43 34v7" stroke="#9aa8b6" stroke-width="2"/>
    <path d="M26 26.5 35 32l-9 5.5z" fill="#6c7d8f"/>
    <circle cx="46" cy="43" r="12" fill="url(#danger)" stroke="#bc3030" stroke-width="1.5"/>
    <path d="M40.5 40.2h11M43.2 40.2l.7 9h4.2l.7-9M44 38.1h4M44.7 43v3.8M47.8 43v3.8" fill="none" stroke="#fff" stroke-width="1.8" stroke-linecap="round" stroke-linejoin="round"/>
  </g>
</svg>
